Coordinates
version=1
nRows=10
nColumns=40
inDegrees=yes

Units are S.I. units (second, meters, Newtons, ...)
Angles are in degrees.

endheader
time	pelvis_tilt	pelvis_list	pelvis_rotation	pelvis_tx	pelvis_ty	pelvis_tz	hip_flexion_r	hip_adduction_r	hip_rotation_r	knee_angle_r	knee_angle_r_beta	ankle_angle_r	subtalar_angle_r	mtp_angle_r	hip_flexion_l	hip_adduction_l	hip_rotation_l	knee_angle_l	knee_angle_l_beta	ankle_angle_l	subtalar_angle_l	mtp_angle_l	lumbar_extension	lumbar_bending	lumbar_rotation	arm_flex_r	arm_add_r	arm_rot_r	elbow_flex_r	pro_sup_r	wrist_flex_r	wrist_dev_r	arm_flex_l	arm_add_l	arm_rot_l	elbow_flex_l	pro_sup_l	wrist_flex_l	wrist_dev_l
     18.64000000	     -5.09783845	     -4.67166488	      8.06536297	      1.04039341	      0.92800721	      0.48455630	     15.69579312	      1.08708750	    -16.02813094	     18.46542058	     18.46542058	      9.45465426	     -3.32794735	     -3.38330059	     29.42294693	     -8.94405346	      5.72959042	     63.48637229	     63.48637229	      6.58901829	    -15.67511948	      5.67528189	    -10.36577355	      5.05683603	      2.78773352	     21.83339914	    -22.03244040	     -4.63195135	     55.86283834	     24.86609103	      0.00000000	      0.00000000	      8.72360749	     -9.76024494	     -7.04386663	     27.99741964	     26.44383819	      0.00000000	      0.00000000
     18.65307143	     -5.24589258	     -4.64668141	      8.32892588	      1.03868413	      0.92838130	      0.48541227	     15.30285843	      1.18574233	    -16.19257060	     17.93506430	     17.93506430	      9.54591979	     -3.28321311	     -3.34662487	     30.60893598	     -8.92787069	      5.67198392	     62.53328908	     62.53328908	      6.78824947	    -16.62796422	      6.08928570	    -10.39083851	      4.90565305	      2.80366844	     23.32556758	    -21.93330663	     -4.91238270	     57.67127952	     25.21274647	      0.00000000	      0.00000000	      7.99145088	     -9.79325795	     -7.39620649	     27.36783890	     26.91193928	      0.00000000	      0.00000000
     18.66614286	     -5.36910439	     -4.59951305	      8.55489814	      1.03698339	      0.92869996	      0.48623941	     14.96582959	      1.23168785	    -16.39358722	     17.56110646	     17.56110646	      9.60040384	     -3.20314592	     -3.52196652	     31.70907098	     -8.95506698	      5.46363895	     61.49804087	     61.49804087	      7.55083871	    -17.11215899	      7.64853595	    -10.52233419	      4.76066312	      3.41001297	     23.55687864	    -22.48574411	     -5.56070330	     61.93343386	     27.54269978	      0.00000000	      0.00000000	      7.69514968	     -9.36389771	     -9.56886693	     26.87254553	     29.68961931	      0.00000000	      0.00000000
     18.67921429	     -5.50208250	     -4.57505400	      8.83942335	      1.03525177	      0.92902297	      0.48697202	     14.60994021	      1.31350955	    -16.53832286	     17.11210950	     17.11210950	      9.67719490	     -3.18304628	     -3.44007707	     32.69858197	     -8.94383510	      5.32920374	     60.15911396	     60.15911396	      7.86654344	    -17.64059509	      8.06361640	    -10.56810935	      4.63121994	      3.14996812	     25.41165989	    -22.11428699	     -5.81400032	     63.31641709	     27.92277969	      0.00000000	      0.00000000	      6.88743634	     -9.51997389	     -9.74280922	     26.19716905	     30.12673550	      0.00000000	      0.00000000
     18.69228571	     -5.64638733	     -4.54451751	      9.10331405	      1.03352157	      0.92932271	      0.48754655	     14.25922480	      1.37751644	    -16.71759818	     16.64886618	     16.64886618	      9.74994601	     -3.11880029	     -3.39725960	     33.60758115	     -8.90839873	      5.15700357	     58.62839688	     58.62839688	      8.29483361	    -17.94386033	      8.75130638	    -10.61663271	      4.51736574	      3.06462123	     26.95635692	    -21.92897979	     -6.02567917	     65.03334431	     28.33264909	      0.00000000	      0.00000000	      6.13496979	     -9.58400830	    -10.02898298	     25.84677842	     30.61806383	      0.00000000	      0.00000000
     18.70535714	     -5.76381649	     -4.50852198	      9.41633178	      1.03179657	      0.92966979	      0.48791173	     13.87355150	      1.42662648	    -16.87871230	     16.17305226	     16.17305226	      9.80736852	     -3.05752596	     -3.35752820	     34.35451436	     -8.77640598	      5.09003525	     56.79942753	     56.79942753	      8.64043340	    -18.11849045	      9.33843416	    -10.67275347	      4.40285191	      3.02145178	     28.34397389	    -21.75896099	     -6.21022844	     66.65740271	     28.56836365	      0.00000000	      0.00000000	      5.43098865	     -9.64960175	    -10.24059942	     25.55593364	     30.92809906	      0.00000000	      0.00000000
     18.71842857	     -5.97815756	     -4.46677713	      9.66699117	      1.02992534	      0.92978035	      0.48802329	     13.62688553	      1.41358534	    -17.14511901	     15.74127599	     15.74127599	      9.78549246	     -2.91977959	     -3.59811692	     35.13398343	     -8.56481453	      5.03154132	     54.86338294	     54.86338294	      9.37202505	    -18.09054678	     10.63012009	    -10.76908699	      4.27779871	      3.36682258	     28.90808535	    -22.11757778	     -6.71026897	     69.87665881	     29.99173300	      0.00000000	      0.00000000	      4.92652547	     -9.42391457	    -11.40167349	     25.83748060	     32.55892190	      0.00000000	      0.00000000
     18.73150000	     -6.14192902	     -4.43944710	      9.95532442	      1.02810648	      0.93003018	      0.48794433	     13.27680976	      1.44309798	    -17.32138688	     15.21469305	     15.21469305	      9.78991866	     -2.85151646	     -3.53186643	     35.67890824	     -8.32305532	      5.04832148	     52.56372257	     52.56372257	      9.59703984	    -17.97975452	     10.79734078	    -10.78828047	      4.18450534	      3.23852580	     30.30939965	    -21.82484547	     -6.86135798	     71.08715534	     30.19142921	      0.00000000	      0.00000000	      4.38792407	     -9.43627837	    -11.50336487	     25.40730269	     32.80041659	      0.00000000	      0.00000000
     18.74457143	     -6.33147118	     -4.43994038	     10.24582693	      1.02625970	      0.93012177	      0.48759796	     12.96979480	      1.46275562	    -17.59356560	     14.71763819	     14.71763819	      9.81018667	     -2.67427217	     -3.57449539	     36.13781600	     -8.01934690	      5.20978075	     50.09615450	     50.09615450	      9.77820252	    -17.72739873	     10.76789701	    -10.79229186	      4.14837441	      3.14447419	     31.52447948	    -21.62211715	     -6.98887284	     72.70093531	     30.45609570	      0.00000000	      0.00000000	      3.86570172	     -9.39350416	    -11.72546242	     25.20937485	     33.13358788	      0.00000000	      0.00000000
     18.75764286	     -6.50030666	     -4.43253933	     10.51213592	      1.02443902	      0.93021981	      0.48705199	     12.64594955	      1.46223313	    -17.85514174	     14.24234051	     14.24234051	      9.81819607	     -2.45577426	     -3.65655611	     36.43135716	     -7.68498360	      5.41775476	     47.47202351	     47.47202351	      9.89612447	    -17.28329871	     10.62720670	    -10.82362554	      4.10548449	      3.15453804	     32.51173841	    -21.49948724	     -7.06622438	     74.30594177	     30.70006948	      0.00000000	      0.00000000	      3.42034056	     -9.32207525	    -11.97682528	     25.15536803	     33.45091283	      0.00000000	      0.00000000
